# xmcd
#
# Track frame offsets:
#	150
#	12832
#	27215
#	37683
#	50384
#	62280
#	77067
#	88700
#	100776
#	111675
#	122722
#	136937
#	149598
#	161190
#	173386
#	183491
#	195860
#	207727
#	220844
#	232158
#
# Disc length: 3253 seconds
#
# Revision: 1
# Processed by: cddbd v1.5.2PL0 Copyright (c) Steve Scherf et al.
# Submitted via: audiograbber 1.83.01
#
DISCID=120cb314
DTITLE=Various Artist - Country Love Songs Sweet Dreams
DYEAR=2001
DGENRE=Country
TTITLE0=Billie Jo Spears - ¥57 Chevrolet
TTITLE1=The Bellamy Brothers - If I Said You Head A Beautiful BodyWould You Hol
TTITLE1=d It Against Me
TTITLE2=Roger Miller - Release Me
TTITLE3=Charlie Rich - The Most Beautiful Girl
TTITLE4=Patsy Cline - If I Could Only Stay Asleep
TTITLE5=Don Gibson - Sweet Dreams
TTITLE6=Skeeter Davis - I Forgot More Than Youﬂ Il Ever Know
TTITLE7=Johnny Cash - I WalkThe Line
TTITLE8=Jerry Lee Lewis - I Could Never Be Ashamed Of You
TTITLE9=David Houston - Sea Of Love
TTITLE10=Lynn Anderson - Cry
TTITLE11=Bobby Dare - Four Strong Winds
TTITLE12=Freddy Fender - Before The Next Teardrop Falls
TTITLE13=Bill Anderson - Tips Of My fingers
TTITLE14=Don Williams - Take My Hand For A While
TTITLE15=Hank Locklin - It¥s A Little More Like Heacen
TTITLE16=Willie Nelson - I Hope So
TTITLE17=Stonewall Jackson - Nobody¥s Darlin¥But Mine
TTITLE18=Merle Haggard - Strangers
TTITLE19=Skeeter Davis - The End Of The World
EXTD=
EXTT0=Billie Jo Spears
EXTT1=The Berllamy Brothers
EXTT2=Roger Miller
EXTT3=Charlie Rich
EXTT4=Patsy Cline
EXTT5=Don Gibson
EXTT6=Skeeter Davis
EXTT7=Jonny Cash
EXTT8=Jerry Lee Lewis
EXTT9=Davic Houston
EXTT10=Lynn Anderson
EXTT11=Bobby Dare
EXTT12=Freddy Fender
EXTT13=Bill Anderson
EXTT14=Don Williams
EXTT15=Hank Locklin
EXTT16=Willie Nelson
EXTT17=Stonewall Jackson
EXTT18=Merle Haggard
EXTT19=Skeeter Davis
PLAYORDER=
